# xmcd CD database file
#
# Track frame offsets:
#	150
#	45580
#	84595
#	170702
#	211658
#
# Disc length: 3062 seconds
#
# Revision: 0
# Processed by: cddbd v1.4PL0 Copyright (c) Steve Scherf et al.
# Submitted via: CDex 1.50
#
DISCID=390bf405
DTITLE=Keith Jarrett - Still Live CD2
DYEAR=1986
DGENRE=Jazz
TTITLE0=Come Rain Or Come Shine
TTITLE1=Late Lament
TTITLE2=You And The Night And The Music
TTITLE3=Billie's Bounce
TTITLE4=I Remember Clifford
EXTD=YEAR: 1986
EXTT0=
EXTT1=
EXTT2=
EXTT3=
EXTT4=
PLAYORDER=
